#tb 0: 1/90000
0,          0,          0,     2160,      384, 0x071abcc8
0,       2160,       2160,     2160,      384, 0x31c9aee0
0,       4320,       4320,     2160,      384, 0xa50eaa94
0,       6480,       6480,     2160,      384, 0x9e86ba0e
0,       8640,       8640,     2160,      384, 0x2321b800
0,      10800,      10800,     2160,      384, 0x2347afa8
0,      12960,      12960,     2160,      384, 0x0831b8d3
0,      15120,      15120,     2160,      384, 0xd5acafa1
0,      17280,      17280,     2160,      384, 0xc975b9d2
0,      19440,      19440,     2160,      384, 0x2e10b02a
0,      21600,      21600,     2160,      384, 0x501eadd0
0,      23760,      23760,     2160,      384, 0x153fc171
0,      25920,      25920,     2160,      384, 0xc5f0b3c2
0,      28080,      28080,     2160,      384, 0xf731b200
0,      30240,      30240,     2160,      384, 0x2e16b713
0,      32400,      32400,     2160,      384, 0x61f6bba9
0,      34560,      34560,     2160,      384, 0x1b9eb0ff
0,      36720,      36720,     2160,      384, 0x2ab4b7bd
0,      38880,      38880,     2160,      384, 0xd66eb45c
0,      41040,      41040,     2160,      384, 0x145ab426
0,      43200,      43200,     2160,      384, 0x297cb370
0,      45360,      45360,     2160,      384, 0x287bb6b7
0,      47520,      47520,     2160,      384, 0xfddbb7df
0,      49680,      49680,     2160,      384, 0xbbb2af0c
0,      51840,      51840,     2160,      384, 0x8f03b5fc
